<svg width="124" height="20" viewBox="0 0 124 20" fill="none" xmlns="http://www.w3.org/2000/svg">
<path d="M10 1L13 7L19 7.75L14.88 12.37L16 19L10 16L4 19L5.13 12.37L1 7.75L7 7L10 1Z" fill="#FFC700"/>
<path d="M36 1L39 7L45 7.75L40.88 12.37L42 19L36 16L30 19L31.13 12.37L27 7.75L33 7L36 1Z" fill="#FFC700"/>
<path d="M62 1L65 7L71 7.75L66.88 12.37L68 19L62 16L56 19L57.13 12.37L53 7.75L59 7L62 1Z" fill="#FFC700"/>
<path d="M88 1L91 7L97 7.75L92.88 12.37L94 19L88 16L82 19L83.13 12.37L79 7.75L85 7L88 1Z" fill="#FFC700"/>
<path d="M111.156 7.0125L104.8 7.9375L109.4 12.4188L108.313 18.75L114 15.7625V1.25L111.156 7.0125Z" fill="#FFC700"/>
</svg>
