<svg width="61" height="56" viewBox="0 0 61 56" fill="none" xmlns="http://www.w3.org/2000/svg">
<path d="M56.0146 29.1019V1.77964C56.0146 0.804893 55.2243 0.0146484 54.2496 0.0146484H6.96174C5.98699 0.0146484 5.19675 0.804893 5.19675 1.77964V31.28C4.34531 31.404 3.51295 31.7346 2.77659 32.2812C0.455277 33.9273 -0.0937518 37.6109 1.85068 39.8827L9.80055 49.5204C14.7216 55.2798 19.9491 55.9854 27.7205 55.9854C34.3894 55.9854 37.371 56.0148 43.1831 54.6905L48.8426 53.3369C49.7603 54.6184 51.2171 55.4485 52.8549 55.4485H55.6429C58.4129 55.4485 60.6666 53.0744 60.6666 50.1561V34.3784C60.6667 31.592 58.6116 29.3031 56.0146 29.1019ZM48.0813 32.7326L45.7296 31.5382C41.863 29.5865 37.3925 29.5142 33.4648 31.3403C32.3932 31.7618 30.056 33.1759 28.8437 33.1286H20.6834C17.9766 33.1286 15.7743 35.3307 15.7743 38.0376V39.3247C15.7591 39.3087 15.7433 39.2936 15.7283 39.2773L9.90091 32.9519C9.54827 32.5692 9.15209 32.2489 8.72684 31.9919V14.481H23.1707V20.951C23.1707 21.9257 23.9609 22.7159 24.9357 22.7159H36.0729C37.0476 22.7159 37.8379 21.9257 37.8379 20.951V14.481H52.4847V29.1018C50.4225 29.2611 48.7029 30.7364 48.0813 32.7326ZM26.7006 14.481H34.3078V19.186H26.7006V14.481ZM52.4846 10.951H37.8379V3.54463H52.4847L52.4846 10.951ZM34.3079 3.54463V10.9511H26.7007V3.54463H34.3079ZM23.1706 3.54463V10.9511H8.72673V3.54463H23.1706ZM42.3639 51.2568C36.9948 52.4865 33.7612 52.4367 27.7838 52.4367C20.4885 52.4367 16.9636 52.3188 12.5238 47.274L4.57394 37.6363C3.19113 35.8357 5.69577 33.7101 7.30473 35.3435L13.1321 41.669C14.6723 43.2941 16.6103 44.1885 18.9991 44.2411H35.1556C36.1303 44.2411 36.9206 43.4508 36.9206 42.4761C36.9206 41.5013 36.1303 40.7111 35.1556 40.7111H19.3042V38.0373C19.3042 37.277 19.9228 36.6583 20.6832 36.6583H28.8436C30.682 36.79 33.3355 35.2549 34.9529 34.541C37.8946 33.1733 41.2429 33.2274 44.135 34.6872L47.8314 36.5646V49.9489L42.3639 51.2568ZM57.1367 50.156C57.1367 51.1278 56.4666 51.9184 55.643 51.9184H52.855C52.0313 51.9184 51.3613 51.1278 51.3613 50.156V34.3784C51.3613 33.4066 52.0315 32.6159 52.855 32.6159H55.643C56.4666 32.6159 57.1367 33.4065 57.1367 34.3784V50.156Z" fill="#242424"/>
</svg>
